<svg width="1920" height="560" viewBox="0 0 1920 560" fill="none" xmlns="http://www.w3.org/2000/svg">
<g filter="url(#filter0_d_1842_587)">
<path d="M920 323C598 325 118 195 -14.0002 181C-312 123.385 -62.0002 453 -14.0002 421C33.9998 389 73.9998 355 318 353C562 351 900 557 1126 513C1352 469 1434 336.999 1934 401C2243.5 440.616 2332 26.9996 1924 40.9996C1516 54.9996 1242 321 920 323Z" fill="#101C2B"/>
<path d="M920 323C598 325 118 195 -14.0002 181C-312 123.385 -62.0002 453 -14.0002 421C33.9998 389 73.9998 355 318 353C562 351 900 557 1126 513C1352 469 1434 336.999 1934 401C2243.5 440.616 2332 26.9996 1924 40.9996C1516 54.9996 1242 321 920 323Z" stroke="url(#paint0_linear_1842_587)"/>
</g>
<path d="M-8.00012 496C172 558 546 510 970 368C1394 226 1538 25.9998 1920 33.9998" stroke="url(#paint1_linear_1842_587)"/>
<path d="M1928 31.9984C1782 227.999 1621.67 421.999 944 421.999C556 421.999 368 339.999 -14.0001 331.999" stroke="url(#paint2_linear_1842_587)"/>
<defs>
<filter id="filter0_d_1842_587" x="-198.271" y="0.151855" width="2437.63" height="559.513" filterUnits="userSpaceOnUse" color-interpolation-filters="sRGB">
<feFlood flood-opacity="0" result="BackgroundImageFix"/>
<feColorMatrix in="SourceAlpha" type="matrix" values="0 0 0 0 0 0 0 0 0 0 0 0 0 0 0 0 0 0 127 0" result="hardAlpha"/>
<feOffset/>
<feGaussianBlur stdDeviation="20"/>
<feColorMatrix type="matrix" values="0 0 0 0 0 0 0 0 0 0 0 0 0 0 0 0 0 0 0.5 0"/>
<feBlend mode="normal" in2="BackgroundImageFix" result="effect1_dropShadow_1842_587"/>
<feBlend mode="normal" in="SourceGraphic" in2="effect1_dropShadow_1842_587" result="shape"/>
</filter>
<linearGradient id="paint0_linear_1842_587" x1="1806" y1="402.999" x2="377.355" y2="-443.998" gradientUnits="userSpaceOnUse">
<stop stop-color="#BD9CEC"/>
<stop offset="1" stop-color="#BD9CEC" stop-opacity="0.2"/>
</linearGradient>
<linearGradient id="paint1_linear_1842_587" x1="1098.89" y1="503.481" x2="1077.81" y2="135.58" gradientUnits="userSpaceOnUse">
<stop stop-color="#BD9CEC"/>
<stop offset="1" stop-color="#BD9CEC" stop-opacity="0"/>
</linearGradient>
<linearGradient id="paint2_linear_1842_587" x1="813.115" y1="52.8651" x2="834.188" y2="420.766" gradientUnits="userSpaceOnUse">
<stop stop-color="#BD9CEC"/>
<stop offset="1" stop-color="#BD9CEC" stop-opacity="0"/>
</linearGradient>
</defs>
</svg>
